<svg id='setting' width="40" height="40" viewBox="0 0 80 80" fill="none" xmlns="http://www.w3.org/2000/svg">
<path id='setting' d="M46.0666 73.3334H33.9333C33.173 73.3335 32.4356 73.0737 31.8433 72.5972C31.2509 72.1207 30.8393 71.456 30.6766 70.7134L29.3199 64.4334C27.5101 63.6404 25.7941 62.6487 24.2033 61.4767L18.0799 63.4267C17.3551 63.6578 16.5731 63.6341 15.8637 63.3594C15.1542 63.0847 14.5601 62.5756 14.1799 61.9167L8.09994 51.4134C7.72376 50.7538 7.58255 49.9861 7.69941 49.2359C7.81628 48.4856 8.1843 47.7972 8.74327 47.2834L13.4933 42.95C13.2773 40.9871 13.2773 39.0063 13.4933 37.0434L8.74327 32.72C8.18351 32.2059 7.81499 31.5169 7.6981 30.766C7.58122 30.015 7.7229 29.2466 8.09994 28.5867L14.1666 18.0767C14.5468 17.4177 15.1409 16.9087 15.8503 16.634C16.5598 16.3593 17.3418 16.3356 18.0666 16.5667L24.1899 18.5167C25.0033 17.9167 25.8499 17.3567 26.7233 16.85C27.5666 16.3767 28.4333 15.9467 29.3199 15.5634L30.6799 9.29002C30.8418 8.54735 31.2527 7.88231 31.8444 7.40518C32.4361 6.92805 33.1732 6.66749 33.9333 6.66669H46.0666C46.8267 6.66749 47.5637 6.92805 48.1555 7.40518C48.7472 7.88231 49.158 8.54735 49.3199 9.29002L50.6933 15.5667C52.502 16.3597 54.217 17.3513 55.8066 18.5234L61.9333 16.5734C62.6576 16.3431 63.4389 16.3673 64.1476 16.6419C64.8563 16.9165 65.4499 17.4251 65.8299 18.0834L71.8966 28.5934C72.6699 29.95 72.4033 31.6667 71.2533 32.7234L66.5033 37.0567C66.7193 39.0197 66.7193 41.0004 66.5033 42.9634L71.2533 47.2967C72.4033 48.3567 72.6699 50.07 71.8966 51.4267L65.8299 61.9367C65.4498 62.5956 64.8556 63.1047 64.1462 63.3794C63.4368 63.6541 62.6547 63.6778 61.9299 63.4467L55.8066 61.4967C54.2171 62.6679 52.502 63.6584 50.6933 64.45L49.3199 70.7134C49.1574 71.4554 48.7462 72.1197 48.1546 72.5962C47.5629 73.0726 46.8263 73.3327 46.0666 73.3334ZM25.3999 54.0967L28.1333 56.0967C28.7499 56.55 29.3899 56.9667 30.0566 57.3467C30.6833 57.71 31.3233 58.0367 31.9866 58.3334L35.0966 59.6967L36.6199 66.6667H43.3866L44.9099 59.6934L48.0199 58.33C49.3766 57.73 50.6666 56.9867 51.8633 56.11L54.5966 54.11L61.4033 56.2767L64.7866 50.4167L59.5099 45.6067L59.8833 42.2334C60.0499 40.7567 60.0499 39.2667 59.8833 37.7934L59.5099 34.42L64.7899 29.6L61.4033 23.7367L54.5999 25.9034L51.8633 23.9034C50.666 23.0223 49.3774 22.2725 48.0199 21.6667L44.9099 20.3034L43.3866 13.3334H36.6199L35.0866 20.3067L31.9866 21.6667C30.6272 22.262 29.3382 23.0066 28.1433 23.8867L25.4066 25.8867L18.6066 23.72L15.2166 29.6L20.4933 34.4034L20.1199 37.78C19.9533 39.2567 19.9533 40.7467 20.1199 42.22L20.4933 45.5934L15.2166 50.4034L18.5999 56.2634L25.3999 54.0967ZM39.9866 53.3334C36.4504 53.3334 33.059 51.9286 30.5585 49.4281C28.058 46.9276 26.6533 43.5362 26.6533 40C26.6533 36.4638 28.058 33.0724 30.5585 30.5719C33.059 28.0714 36.4504 26.6667 39.9866 26.6667C43.5228 26.6667 46.9142 28.0714 49.4147 30.5719C51.9152 33.0724 53.3199 36.4638 53.3199 40C53.3199 43.5362 51.9152 46.9276 49.4147 49.4281C46.9142 51.9286 43.5228 53.3334 39.9866 53.3334ZM39.9866 33.3334C38.6811 33.3347 37.4048 33.7193 36.3159 34.4394C35.227 35.1595 34.3735 36.1835 33.8613 37.3843C33.3491 38.5851 33.2007 39.9099 33.4345 41.1942C33.6684 42.4786 34.2742 43.666 35.1767 44.6092C36.0793 45.5524 37.239 46.2099 38.5118 46.5C39.7846 46.7901 41.1146 46.7001 42.3368 46.2412C43.559 45.7823 44.6195 44.9747 45.3868 43.9185C46.1542 42.8624 46.5945 41.6042 46.6533 40.3V41.6334V40C46.6533 38.2319 45.9509 36.5362 44.7007 35.286C43.4504 34.0357 41.7547 33.3334 39.9866 33.3334Z" fill="#3A405A"/>
</svg>
