<svg width="50" height="50" viewBox="0 0 50 50" fill="none" xmlns="http://www.w3.org/2000/svg">
<path d="M48.9652 24.5904L26.2475 0.547574C26.0839 0.373994 25.8896 0.236283 25.6758 0.142324C25.4619 0.048364 25.2326 0 25.001 0C24.7695 0 24.5402 0.048364 24.3263 0.142324C24.1124 0.236283 23.9181 0.373994 23.7546 0.547574L1.03688 24.5904C0.375043 25.2913 0 26.2434 0 27.2365C0 29.2984 1.5829 30.9749 3.52982 30.9749H5.92348V48.1308C5.92348 49.1647 6.71217 50 7.68838 50H21.4712V36.9155H27.6484V50H42.3137C43.2899 50 44.0786 49.1647 44.0786 48.1308V30.9749H46.4723C47.4099 30.9749 48.3089 30.5835 48.9707 29.8767C50.344 28.4164 50.344 26.0507 48.9652 24.5904V24.5904Z" fill="#3A405A"/>
</svg>
