<?xml version="1.0" encoding="UTF-8"?>
<svg width="200px" height="107px" viewBox="0 0 200 107" version="1.1" xmlns="http://www.w3.org/2000/svg" xmlns:xlink="http://www.w3.org/1999/xlink">
    <!-- Generator: Sketch 54.1 (76490) - https://sketchapp.com -->
    <title>群組</title>
    <desc>Created with Sketch.</desc>
    <defs>
        <polygon id="path-1" points="0 106.673282 199.857166 106.673282 199.857166 0.130033588 0 0.130033588"></polygon>
    </defs>
    <g id="page-1" stroke="none" stroke-width="1" fill="none" fill-rule="evenodd">
        <g id="00_index_a" transform="translate(-100.000000, -28.000000)">
            <g id="群組" transform="translate(100.000000, 28.000000)">
                <polygon id="Fill-1" fill="#FEFEFE" points="0 106.706608 199.857166 106.706608 199.857166 0.163358779 0 0.163358779"></polygon>
                <g transform="translate(0.000000, 0.033325)">
                    <path d="M52.93,78.3158647 C44.0598046,75.5846693 42.2658306,67.9005991 42.8086645,59.399735 L55.6283713,59.399735 C55.6283713,65.2698693 55.8822801,70.192196 62.9293485,70.192196 C67.2591531,70.192196 69.3814658,67.3923899 69.3814658,63.2255976 C69.3814658,52.1753563 43.575114,51.4943136 43.575114,33.2373365 C43.575114,23.634454 48.1573616,15.983709 63.7814658,15.983709 C76.2570358,15.983709 82.4578502,21.5918159 81.6101303,34.4179304 L69.1272313,34.4179304 C69.1272313,29.8290189 68.366645,25.1644724 63.184886,25.1644724 C59.0291857,25.1644724 56.5630619,27.4560693 56.5630619,31.6984968 C56.5630619,43.345651 82.375114,42.3258021 82.375114,61.6155334 C82.375114,72.2418586 77.1731596,76.5966769 70.8054072,78.3158647 L52.93,78.3158647 Z" id="Fill-2" fill="#7D7C7D"></path>
                    <path d="M113.569137,35.8660243 C113.65627,30.1697037 112.718648,25.164554 105.927117,25.164554 C97.9497557,25.164554 97.9497557,35.9524411 97.9497557,47.8492075 C97.9497557,67.0458243 99.8207655,70.4498945 107.118811,70.4498945 C109.240961,70.4498945 111.535749,69.9387449 113.483632,69.2559052 L113.483632,55.6624945 L106.525163,55.6624945 L106.525163,46.2347327 L126.303339,46.2347327 L126.303339,77.3333434 C124.947476,77.5981479 122.796498,77.966522 120.370928,78.3157831 L98.4329805,78.3157831 C86.555456,75.3501678 84.9574104,65.9145647 84.9574104,47.1724121 C84.9574104,31.6985785 85.7251629,15.9837907 106.692101,15.9837907 C119.257736,15.9837907 127.069625,23.0376227 126.303339,35.8660243 L113.569137,35.8660243 Z" id="Fill-4" fill="#7D7C7D"></path>
                    <path d="M150.527248,15.983709 C161.729853,15.9590418 167.845,20.3548632 168.695814,30.2243472 L168.695814,34.4179304 L156.215847,34.4179304 C156.225945,29.9454937 155.106726,25.1644724 149.927573,25.1644724 C145.767801,25.1644724 143.301678,27.4560693 143.301678,31.6984968 C143.301678,42.464167 165.357052,42.4073182 168.695814,57.5694632 L168.695814,66.4563441 C167.33702,73.6308983 162.843046,76.8863121 157.546629,78.3158647 L139.67285,78.3158647 C130.80298,75.5846693 129.008681,67.9005991 129.553143,59.399735 L142.369756,59.399735 C142.369756,65.2698693 142.628225,70.1920327 149.676596,70.1920327 C154.0007,70.1920327 156.12285,67.3923899 156.12285,63.2255976 C156.12285,52.1753563 130.312101,51.4941502 130.312101,33.2373365 C130.312101,23.634454 134.895977,16.0186678 150.527248,15.983709" id="Fill-6" fill="#7D7C7D"></path>
                    <mask id="mask-2" fill="white">
                        <use xlink:href="#path-1"></use>
                    </mask>
                    <g id="Clip-9"></g>
                    <polygon id="Fill-8" fill="#EF8200" mask="url(#mask-2)" points="4.38045603 79.7952092 193.976384 79.7952092 193.976384 78.3158321 4.38045603 78.3158321"></polygon>
                    <polygon id="Fill-10" fill="#EF8200" mask="url(#mask-2)" points="168.695765 92.4729939 170.170358 92.4729939 170.170358 3.72801069 168.695765 3.72801069"></polygon>
                </g>
            </g>
        </g>
    </g>
</svg>